<svg width="146" height="30" viewBox="0 0 146 30" fill="none" xmlns="http://www.w3.org/2000/svg">
<path d="M24.3187 0.21582V0.675152C29.0742 0.675152 26.7732 6.40147 26.3436 7.87132L23.1528 16.6292L18.4587 3.76798C18.428 3.64549 17.3235 0.675152 20.0848 0.675152V0.21582H11.0647V0.675152C11.9544 0.675152 13.0282 0.767017 13.918 3.09429L15.6054 7.65697L12.5066 16.5067L7.6591 3.76798C7.59774 3.64549 6.55459 0.675152 9.25449 0.675152V0.21582H0.234375V0.675152C1.1548 0.675152 2.19794 0.767017 3.11836 3.09429L10.6044 21.7737H11.0647L15.8508 8.33066L21.1586 21.7737H21.6188L26.8038 7.99381C29.4731 1.41008 30.9151 0.675152 32.7559 0.675152V0.21582H24.3187Z" fill="white" fill-opacity="0.8"/>
<path d="M40.3069 14.7C40.3069 20.2426 39.2638 21.59 36.9627 21.59C34.6924 21.59 33.6185 20.2426 33.6185 14.7C33.6185 9.15745 34.6924 7.81008 36.9627 7.81008C39.2638 7.81008 40.3069 9.15745 40.3069 14.7ZM44.1727 14.7C44.1727 10.6579 41.6569 7.35075 36.9627 7.35075C32.2993 7.35075 29.7835 10.6579 29.7835 14.7C29.7835 18.7115 32.2993 22.0493 36.9627 22.0493C41.6569 22.0493 44.1727 18.7115 44.1727 14.7Z" fill="white" fill-opacity="0.8"/>
<path d="M60.4562 7.62635V8.05506C63.7084 8.05506 62.1743 12.189 62.1743 12.189L60.2415 17.5479L56.8973 10.0149C56.8973 10.0149 55.8234 8.05506 57.787 8.05506V7.62635H51.1907V8.05506C51.6816 8.08568 52.4179 8.14692 53.0929 9.52491C53.0929 9.52491 53.2156 9.76989 54.1667 11.8522L52.0804 17.5479L48.7055 9.98424C48.7055 9.98424 47.7237 8.05506 49.5032 8.05506V7.62635H42.9376V8.05506C43.4285 8.08568 44.2262 8.14692 44.9011 9.52491C44.9011 9.52491 45.3 10.2905 50.5157 22.0493H50.9452L54.4121 12.4646L58.7074 22.0493H59.1063L62.6652 12.3421C64.1379 8.17754 65.5185 8.05506 66.1935 8.05506V7.62635H60.4562Z" fill="white" fill-opacity="0.8"/>
<path d="M89.1161 0.21582V0.675152C93.8716 0.675152 91.5705 6.40147 91.141 7.87132L87.9502 16.6292L83.256 3.76798C83.2254 3.64549 82.1209 0.675152 84.8821 0.675152V0.21582H75.862V0.675152C76.7517 0.675152 77.8256 0.767017 78.7153 3.09429L80.4027 7.65697L77.304 16.5067L72.4565 3.76798C72.3951 3.64549 71.3519 0.675152 74.0518 0.675152V0.21582H65.0317V0.675152C65.9521 0.675152 66.9953 0.767017 67.9157 3.09429L75.4018 21.7737H75.862L80.6482 8.33066L85.9559 21.7737H86.4162L91.6012 7.99381C94.2704 1.41008 95.7124 0.675152 97.5532 0.675152V0.21582H89.1161Z" fill="white" fill-opacity="0.8"/>
<path d="M104.113 7.47324C103.131 7.71822 101.628 8.36128 100.247 10.6579V7.35075L95.4303 8.3919V8.85123C96.6882 9.31056 96.9643 9.76989 96.9643 10.811V18.4665C96.9643 20.0589 96.903 20.9469 95.7371 21.3144V21.7737H101.505V21.3144C100.401 21.0082 100.247 20.1814 100.247 18.4665V11.4541C101.29 9.52491 102.947 9.00434 102.886 9.43305C102.855 9.89238 103.039 10.3823 103.407 10.7804C104.236 11.546 105.463 11.5153 106.23 10.7498C106.997 9.98424 106.997 8.72874 106.23 7.96319C105.678 7.44262 104.727 7.32013 104.113 7.47324Z" fill="white" fill-opacity="0.8"/>
<path d="M113.748 14.3938C113.748 14.3938 113.748 18.6809 113.748 18.7421C113.472 19.4771 112.736 20.4264 111.416 20.4264C109.483 20.4264 109.207 18.6503 109.207 18.2216C109.207 16.5067 110.465 15.1287 113.748 14.3938ZM119.363 19.7527C119.179 20.3957 118.504 20.3957 118.504 20.3957C117.062 20.3957 117.062 18.3747 117.062 18.3747V13.4752C117.062 9.86176 116.08 7.35075 112.398 7.35075C112.398 7.35075 110.833 7.25888 109.483 7.96319C107.827 8.85123 107.367 9.70865 107.09 10.1986C106.814 10.6886 106.845 11.3622 107.213 11.8828C107.704 12.5871 108.716 12.7402 109.422 12.2503C110.128 11.7297 110.312 10.7498 109.79 10.0455C109.514 9.67802 109.177 9.49429 108.747 9.43305C108.563 9.40243 108.716 8.85123 109.79 8.30003C112.091 7.19764 113.748 8.88185 113.748 12.0359V13.8732C108.44 15.2206 105.863 15.7106 105.863 18.9259C105.863 22.0493 109.391 22.0493 109.391 22.0493C111.539 22.0493 113.349 20.9163 113.779 19.5077C114.055 22.0799 116.601 22.0493 116.601 22.0493C118.381 22.0493 119.608 20.8857 119.823 19.9364L119.363 19.7527Z" fill="white" fill-opacity="0.8"/>
<path d="M130.924 15.19C130.924 19.967 129.42 21.59 127.273 21.59C125.524 21.59 123.836 20.4264 123.622 17.4866V11.8216C123.806 9.86176 125.002 8.3919 126.935 8.3919C129.512 8.3919 130.924 10.2905 130.924 15.19ZM134.697 14.8225C134.697 10.2905 131.997 7.35075 128.224 7.35075C126.72 7.35075 124.573 8.05506 123.622 9.76989V7.35075L118.835 8.3919V8.85123C120.093 9.18807 120.369 9.46367 120.369 10.5354V26.7957C120.369 28.3575 120.308 29.0924 119.142 29.4292V29.8886H124.879V29.4292C123.775 29.1536 123.622 28.4799 123.622 26.7957V21.0082C124.573 21.6512 125.861 22.0493 127.334 22.0493C131.537 22.0493 134.697 19.6608 134.697 14.8225Z" fill="white" fill-opacity="0.8"/>
<path d="M145.255 20.457C146.758 18.3134 145.868 15.7412 143.107 14.0264L140.008 12.0972C137.339 10.413 137.891 7.81008 140.346 7.81008C143.69 7.81008 144.61 10.4436 144.917 11.8828H145.377V8.30003C145.377 8.30003 143.874 7.35075 140.346 7.35075C137.247 7.35075 136.204 9.00434 136.204 9.00434C134.731 11.1479 135.467 13.2914 138.443 15.19L141.542 17.0579C143.874 18.589 143.874 21.59 141.174 21.59C137.37 21.59 136.51 18.3441 136.173 16.7211H135.713V20.7326C135.713 20.7326 137.462 22.0493 141.174 22.0493C144.15 22.0493 145.255 20.457 145.255 20.457Z" fill="white" fill-opacity="0.8"/>
</svg>
